{
	"asset":{
		"generator":"Khronos glTF Blender I/O v4.2.60",
		"version":"2.0"
	},
	"scene":0,
	"scenes":[
		{
			"name":"Scene",
			"nodes":[
				0
			]
		}
	],
	"nodes":[
		{
			"mesh":0,
			"name":"Sword"
		}
	],
	"materials":[
		{
			"doubleSided":true,
			"name":"Material.004",
			"pbrMetallicRoughness":{
				"baseColorTexture":{
					"index":0
				},
				"metallicFactor":0,
				"roughnessFactor":0.5
			}
		}
	],
	"meshes":[
		{
			"name":"Cylinder.001",
			"primitives":[
				{
					"attributes":{
						"POSITION":0,
						"NORMAL":1,
						"TEXCOORD_0":2
					},
					"indices":3,
					"material":0
				}
			]
		}
	],
	"textures":[
		{
			"sampler":0,
			"source":0
		}
	],
	"images":[
		{
			"mimeType":"image/png",
			"name":"Untitled",
			"uri":"../../textures/weapons/Untitled.png"
		}
	],
	"accessors":[
		{
			"bufferView":0,
			"componentType":5126,
			"count":1031,
			"max":[
				0.015625014901161194,
				0.8046875,
				0.03124999813735485
			],
			"min":[
				-0.015627635642886162,
				-0.1328125,
				-0.06243957579135895
			],
			"type":"VEC3"
		},
		{
			"bufferView":1,
			"componentType":5126,
			"count":1031,
			"type":"VEC3"
		},
		{
			"bufferView":2,
			"componentType":5126,
			"count":1031,
			"type":"VEC2"
		},
		{
			"bufferView":3,
			"componentType":5123,
			"count":1602,
			"type":"SCALAR"
		}
	],
	"bufferViews":[
		{
			"buffer":0,
			"byteLength":12372,
			"byteOffset":0,
			"target":34962
		},
		{
			"buffer":0,
			"byteLength":12372,
			"byteOffset":12372,
			"target":34962
		},
		{
			"buffer":0,
			"byteLength":8248,
			"byteOffset":24744,
			"target":34962
		},
		{
			"buffer":0,
			"byteLength":3204,
			"byteOffset":32992,
			"target":34963
		}
	],
	"samplers":[
		{
			"magFilter":9728,
			"minFilter":9984
		}
	],
	"buffers":[
		{
			"byteLength":36196,
			"uri":"gothic_hilted_british_blade.bin"
		}
	]
}
